<svg width="118" height="17" viewBox="0 0 118 17" fill="none" xmlns="http://www.w3.org/2000/svg">
<path d="M9 0L11.1 6.5H18L12.4 10.5L14.6 17L9 13L3.4 17L5.6 10.5L0 6.5H6.9L9 0Z" fill="#83B3D3"/>
<path d="M34 0L36.1 6.5H43L37.4 10.5L39.6 17L34 13L28.4 17L30.6 10.5L25 6.5H31.9L34 0Z" fill="#83B3D3"/>
<path d="M59 0L61.1 6.5H68L62.4 10.5L64.6 17L59 13L53.4 17L55.6 10.5L50 6.5H56.9L59 0Z" fill="#83B3D3"/>
<path d="M84 0L86.1 6.5H93L87.4 10.5L89.6 17L84 13L78.4 17L80.6 10.5L75 6.5H81.9L84 0Z" fill="#83B3D3"/>
<path d="M109 0L111.1 6.5H118L112.4 10.5L114.6 17L109 13L103.4 17L105.6 10.5L100 6.5H106.9L109 0Z" fill="#83B3D3"/>
</svg>
